<svg width="40" height="40" viewBox="0 0 40 40" fill="none" xmlns="http://www.w3.org/2000/svg">
<rect width="40" height="40" fill="#082640"/>
<path d="M16.3705 16.0568L16.3705 30.6362H33.9677" stroke="white" stroke-width="2"/>
<path d="M19.6413 16.0568C19.6413 17.4222 18.2691 18.681 16.3705 18.681C14.4719 18.681 13.0997 17.4222 13.0997 16.0568C13.0997 14.6914 14.4719 13.4326 16.3705 13.4326C18.2691 13.4326 19.6413 14.6914 19.6413 16.0568Z" fill="white" stroke="white"/>
<path d="M37.2385 30.636C37.2385 32.0014 35.8663 33.2602 33.9677 33.2602C32.0691 33.2602 30.6969 32.0014 30.6969 30.636C30.6969 29.2706 32.0691 28.0118 33.9677 28.0118C35.8663 28.0118 37.2385 29.2706 37.2385 30.636Z" fill="white" stroke="white"/>
<path d="M19.6413 30.636C19.6413 32.0014 18.2691 33.2602 16.3705 33.2602C14.4719 33.2602 13.0997 32.0014 13.0997 30.636C13.0997 29.2706 14.4719 28.0118 16.3705 28.0118C18.2691 28.0118 19.6413 29.2706 19.6413 30.636Z" fill="white" stroke="white"/>
<path d="M23.9121 24.3877L23.9121 9.80822L6.31492 9.80822" stroke="#FFCC00" stroke-width="2"/>
<ellipse cx="23.9122" cy="24.3877" rx="3.77082" ry="3.12417" transform="rotate(180 23.9122 24.3877)" fill="#FFCC00"/>
<path d="M2.54417 9.80845C2.54417 8.08301 4.23242 6.68427 6.31499 6.68427C8.39756 6.68427 10.0858 8.08301 10.0858 9.80845C10.0858 11.5339 8.39756 12.9326 6.31499 12.9326C4.23242 12.9326 2.54417 11.5339 2.54417 9.80845Z" fill="#FFCC00"/>
<path d="M20.1413 9.80845C20.1413 8.08301 21.8296 6.68427 23.9122 6.68427C25.9947 6.68427 27.683 8.08301 27.683 9.80845C27.683 11.5339 25.9947 12.9326 23.9122 12.9326C21.8296 12.9326 20.1413 11.5339 20.1413 9.80845Z" fill="#FFCC00"/>
</svg>
